<?xml version="1.0" encoding="utf-8"?>
<!-- Generator: Adobe Illustrator 15.1.0, SVG Export Plug-In . SVG Version: 6.00 Build 0)  -->
<!DOCTYPE svg PUBLIC "-//W3C//DTD SVG 1.1//EN" "http://www.w3.org/Graphics/SVG/1.1/DTD/svg11.dtd">
<svg version="1.1" xmlns="http://www.w3.org/2000/svg" xmlns:xlink="http://www.w3.org/1999/xlink" x="0px" y="0px" width="716px"
	 height="336px" viewBox="0 0 716 336" enable-background="new 0 0 716 336" xml:space="preserve">
<g id="Layer_2">
	<path d="M114.25,127.12l-12.046,5.046v44.521c0.796,10.375,5.171,16.562,15.858,17.062h9.875V227l12.625-5.875V193.91l8.938-0.16
		c8.564,0.518,15.563-5.5,16.204-17.438V127L153,132v44.667c-0.037,3.334-5.438,6.784-8.75,6.784l-20.75,0.105
		c-3.25,0-8.5-3.556-9.25-6.889V127.12z"/>
	<path d="M197.625,127.125L185,132.063v94.167l12.5-5.5v-34.333c1.688-4.396,3.125-6.083,7.125-5.831l23.917,0.039
		c3.771,0.521,5.333,3.708,5.792,9.646c0.016,0.2-0.33,35.979-0.33,35.979l11.913-5.584v-37.34
		c-2.167-7.181-6.979-12.618-14.583-13.534l-16.833,0.166l27.833-37.813l-11-5L203.897,166.5c-0.61,1.179-2.272,4.75-6.272,5.25
		V127.125z"/>
	<path fill="#1F84B7" d="M268,166.5l0.417,23.563c2.208,6.063,4.841,8.492,9.649,10.194l31.059,0.66
		c5.113-1.93,8.475-5.391,11.125-10.417v-24c-1.569-4.179-5.625-9.5-11.75-11.167h-28.125C271.75,156.75,268,166.5,268,166.5z"/>
	<path d="M390.833,197l-12,5.5l-0.364,6c-0.666,2.5-0.917,3.597-4.677,5h-17.834c-2.489,0.188-4.583-2.666-5.167-5l-0.11-36.5
		c-0.056-2,1.069-4.875,4.652-5.167L374,166.449c2.001-0.202,5.001,2.132,5.167,3.718l-0.5,13.389l12.166-5.895V166.5
		c-1.471-3.458-7.915-10.586-13.999-11.133l-22.833-0.034c-5.834,1-14,7.417-15.083,12.167v44.667
		c1.332,3.535,6.083,12.5,12.417,12.5h26.832c4.168-0.583,10.999-6.334,12.166-10.834L390.833,197z"/>
	<path d="M410.25,166.5c2.458-6.792,5.042-9.833,12.667-11.167H449.5c7.917,1.083,11.792,7.125,12.5,11.167v44
		c0,8.032-2.968,11.75-12.468,14.167h-26.615c-7.594,0-11.834-5.458-12.667-11.635V166.5z"/>
	<path fill="#FFFFFF" d="M427.667,166.5c-3.334,1.125-4,2.25-4.75,5.532V208.5c0.458,2.959,2.208,4.292,4.75,5.032l16.584-0.032
		c3.249-0.375,4.999-2.375,5.249-5V172c-0.375-2.5-2.5-4.833-5.249-5.5H427.667z"/>
	<path fill="none" d="M521.688,132"/>
	<path d="M521.688,132l11.813-5v81.5c0,11.157-3.302,16.167-16.625,16.167h-23.438c-7.771-1.875-10.729-5-12.438-16.167
		c0,0,0.165-30.171,0-36.5c-0.208-7.958,8-18.167,17.5-16.667h18.375c0.875,0.583,3.356,1.26,4.813,2.833V132z"/>
	<path fill="#FFFFFF" d="M516.875,166.5c2.907,0,4.813,2.615,4.813,5.5c0,8.504,0,36.5,0,36.5c0,2.073-3.28,5-4.813,5.032
		c-4.277,0.09-18.375,0-18.375,0c-1.718-0.032-5.063-2.833-5.063-5.032c0-5.348,0-36.5,0-36.5c0.271-1.958,1.511-5.5,5.063-5.5
		C498.5,166.5,516.49,166.5,516.875,166.5z"/>
	<path fill="none" d="M688.064,49.598"/>
	<path d="M607.938,197v16.5c-2.531,7.25-6.625,10.688-17.063,11.167H568.75c-7.094-0.448-12.469-6.104-13.375-16.167l-0.017-37.5
		c0-10.75,7.954-16.196,18.517-15.667h17c14.001,0,17.063,8.542,17.063,15.667v7.125L568.75,208.5c0,2.344,2.751,5,5.125,5h17
		c1.813,0,5.125-2.719,5.125-5v-5.813L607.938,197z"/>
	<path fill="#FFFFFF" d="M568.75,172c0-3.375,2.25-5.5,5.125-5.5h17c2.917,0,5.125,2.563,5.125,4.5c0,1.85,0,2.75,0,2.75l-27.25,20"
		/>
	<text transform="matrix(1 0 0 1 231.335 261.0313)" font-family="'TwCenMT-Condensed'" font-size="36">C O D I N G     A G E N C Y</text>
</g>
<g id="Layer_4">
	<path fill="#1F84B7" d="M59.75,145.5v72.75c0,0,0.92,0,8,0c5.704,0,7.25,6.625,7.25,11.25s-2,8.25-7.25,9.75c0,0-13.42,0-21.25,0
		c-4.13,0-9.75-5.965-9.75-9.75v-95c0-3.546,6.537-11.25,9.75-11.25h21.25c5.667,1.583,7.25,6.565,7.25,11.25
		c0,5.287-1.833,10.167-7.25,11H59.75z"/>
	<path fill="#1F84B7" d="M636.727,217.137l1.404-72.736c0,0-0.92-0.018-7.998-0.154c-5.703-0.11-7.121-6.764-7.031-11.388
		c0.089-4.624,2.158-8.21,7.437-9.608c0,0,13.417,0.259,21.246,0.41c4.13,0.08,9.633,6.152,9.56,9.937l-1.834,94.981
		c-0.068,3.545-6.753,11.123-9.965,11.061l-21.246-0.41c-5.635-1.693-7.122-6.703-7.032-11.389
		c0.103-5.285,2.03-10.129,7.462-10.857L636.727,217.137z"/>
</g>
</svg>
